<svg data-v-423bf9ae="" xmlns="http://www.w3.org/2000/svg" viewBox="0 0 532.5631050349988 163" class="iconAbove"><!----><!----><!----><g data-v-423bf9ae="" id="65ae131b-9876-4cad-9cab-f97ad3926258" fill="#342103" transform="matrix(4.590665418742173,0,0,4.590665418742173,-5.187457945284962,103.04590545509927)"><path d="M3.09 6.55L3.09 10.50L1.13 10.50L1.13 1.36L6.65 1.36L6.36 2.91L3.09 2.91L3.09 5.00L6.36 5.00L6.36 6.55L3.09 6.55ZM9.98 8.48L9.98 8.48L9.98 8.48Q10.00 8.72 10.11 8.86L10.11 8.86L10.11 8.86Q10.22 9.00 10.38 9.06L10.38 9.06L10.38 9.06Q10.54 9.13 10.75 9.13L10.75 9.13L10.75 9.13Q10.95 9.14 11.17 9.11L11.17 9.11L11.17 10.56L11.17 10.56Q10.98 10.60 10.83 10.62L10.83 10.62L10.83 10.62Q10.68 10.64 10.57 10.65L10.57 10.65L10.57 10.65Q10.44 10.67 10.36 10.65L10.36 10.65L10.36 10.65Q9.83 10.65 9.41 10.61L9.41 10.61L9.41 10.61Q8.99 10.57 8.69 10.34L8.69 10.34L8.69 10.34Q8.40 10.11 8.25 9.64L8.25 9.64L8.25 9.64Q8.09 9.17 8.09 8.30L8.09 8.30L8.09 1.55L9.98 1.55L9.98 8.48ZM14.92 10.50L13.03 10.50L13.03 3.29L14.92 3.29L14.92 10.50ZM15.02 1.02L15.02 1.02L15.02 1.02Q15.02 1.47 14.71 1.78L14.71 1.78L14.71 1.78Q14.41 2.09 13.97 2.09L13.97 2.09L13.97 2.09Q13.52 2.09 13.22 1.78L13.22 1.78L13.22 1.78Q12.91 1.47 12.91 1.02L12.91 1.02L12.91 1.02Q12.91 0.59 13.22 0.29L13.22 0.29L13.22 0.29Q13.52-0.01 13.97-0.01L13.97-0.01L13.97-0.01Q14.41-0.01 14.71 0.29L14.71 0.29L14.71 0.29Q15.02 0.59 15.02 1.02ZM22.11 3.29L23.58 3.29L23.58 9.63L23.58 9.63Q23.58 10.32 23.36 10.93L23.36 10.93L23.36 10.93Q23.14 11.54 22.67 12.01L22.67 12.01L22.67 12.01Q22.20 12.47 21.48 12.76L21.48 12.76L21.48 12.76Q20.75 13.05 19.73 13.06L19.73 13.06L19.73 13.06Q19.18 13.06 18.73 12.98L18.73 12.98L18.73 12.98Q18.28 12.91 17.96 12.81L17.96 12.81L17.96 12.81Q17.58 12.70 17.28 12.54L17.28 12.54L17.42 11.05L17.42 11.05Q17.72 11.20 18.09 11.33L18.09 11.33L18.09 11.33Q18.41 11.44 18.82 11.52L18.82 11.52L18.82 11.52Q19.24 11.59 19.73 11.59L19.73 11.59L19.73 11.59Q20.31 11.59 20.68 11.43L20.68 11.43L20.68 11.43Q21.06 11.27 21.27 11.03L21.27 11.03L21.27 11.03Q21.49 10.78 21.59 10.50L21.59 10.50L21.59 10.50Q21.69 10.22 21.71 9.97L21.71 9.97L21.71 9.97Q21.73 9.73 21.71 9.56L21.71 9.56L21.71 9.56Q21.70 9.39 21.70 9.39L21.70 9.39L21.70 9.39Q21.70 9.39 21.59 9.56L21.59 9.56L21.59 9.56Q21.48 9.73 21.22 9.94L21.22 9.94L21.22 9.94Q20.97 10.15 20.57 10.32L20.57 10.32L20.57 10.32Q20.16 10.50 19.57 10.50L19.57 10.50L19.57 10.50Q18.94 10.50 18.38 10.31L18.38 10.31L18.38 10.31Q17.82 10.12 17.40 9.68L17.40 9.68L17.40 9.68Q16.98 9.24 16.74 8.53L16.74 8.53L16.74 8.53Q16.49 7.81 16.49 6.78L16.49 6.78L16.49 6.78Q16.49 5.74 16.80 5.04L16.80 5.04L16.80 5.04Q17.11 4.34 17.57 3.91L17.57 3.91L17.57 3.91Q18.03 3.49 18.57 3.30L18.57 3.30L18.57 3.30Q19.11 3.12 19.57 3.12L19.57 3.12L19.57 3.12Q20.12 3.12 20.52 3.28L20.52 3.28L20.52 3.28Q20.93 3.44 21.19 3.64L21.19 3.64L21.19 3.64Q21.45 3.84 21.58 4.00L21.58 4.00L21.58 4.00Q21.71 4.16 21.71 4.16L21.71 4.16L22.11 3.29ZM21.70 6.82L21.70 6.82L21.70 6.82Q21.70 5.68 21.25 5.13L21.25 5.13L21.25 5.13Q20.80 4.58 20.08 4.58L20.08 4.58L20.08 4.58Q19.35 4.58 18.90 5.13L18.90 5.13L18.90 5.13Q18.45 5.68 18.45 6.82L18.45 6.82L18.45 6.82Q18.45 7.95 18.90 8.50L18.90 8.50L18.90 8.50Q19.35 9.04 20.08 9.04L20.08 9.04L20.08 9.04Q20.80 9.04 21.25 8.50L21.25 8.50L21.25 8.50Q21.70 7.95 21.70 6.82ZM29.68 3.12L29.68 3.12L29.68 3.12Q30.32 3.12 30.79 3.34L30.79 3.34L30.79 3.34Q31.25 3.56 31.55 3.93L31.55 3.93L31.55 3.93Q31.85 4.31 31.99 4.83L31.99 4.83L31.99 4.83Q32.13 5.35 32.13 5.95L32.13 5.95L32.13 10.50L30.25 10.50L30.25 6.58L30.25 6.58Q30.25 5.54 29.97 5.05L29.97 5.05L29.97 5.05Q29.69 4.56 29.01 4.56L29.01 4.56L29.01 4.56Q28.18 4.56 27.78 5.25L27.78 5.25L27.78 5.25Q27.38 5.94 27.38 7.06L27.38 7.06L27.38 10.50L25.51 10.50L25.51 1.55L27.29 1.55L27.29 4.27L27.29 4.27Q27.43 4.12 27.59 3.91L27.59 3.91L27.59 3.91Q27.76 3.71 28.02 3.54L28.02 3.54L28.02 3.54Q28.28 3.36 28.68 3.24L28.68 3.24L28.68 3.24Q29.08 3.12 29.68 3.12ZM37.00 9.20L37.00 9.20L37.00 9.20Q37.41 9.20 37.76 9.13L37.76 9.13L37.76 9.13Q37.93 9.09 38.09 9.04L38.09 9.04L38.11 10.50L38.11 10.50Q37.86 10.54 37.58 10.58L37.58 10.58L37.58 10.58Q37.34 10.61 37.02 10.63L37.02 10.63L37.02 10.63Q36.69 10.65 36.33 10.65L36.33 10.65L36.33 10.65Q35.80 10.60 35.39 10.33L35.39 10.33L35.39 10.33Q35.04 10.09 34.76 9.63L34.76 9.63L34.76 9.63Q34.47 9.16 34.47 8.30L34.47 8.30L34.47 5.36L33.10 5.36L33.10 3.99L34.47 3.99L34.47 1.97L36.33 1.55L36.33 3.99L38.02 3.99L38.02 5.36L36.36 5.36L36.36 8.20L36.36 8.20Q36.36 8.39 36.41 8.56L36.41 8.56L36.41 8.56Q36.46 8.74 36.55 8.88L36.55 8.88L36.55 8.88Q36.64 9.02 36.76 9.11L36.76 9.11L36.76 9.11Q36.88 9.20 37.00 9.20ZM49.42 2.30L48.73 3.95L48.73 3.95Q48.20 3.54 47.64 3.32L47.64 3.32L47.64 3.32Q47.07 3.09 46.56 3.09L46.56 3.09L46.56 3.09Q46.02 3.09 45.75 3.24L45.75 3.24L45.75 3.24Q45.49 3.39 45.49 3.88L45.49 3.88L45.49 3.88Q45.49 4.13 45.59 4.31L45.59 4.31L45.59 4.31Q45.70 4.49 45.89 4.63L45.89 4.63L45.89 4.63Q46.09 4.77 46.36 4.88L46.36 4.88L46.36 4.88Q46.63 4.98 46.96 5.10L46.96 5.10L46.96 5.10Q47.43 5.25 47.92 5.45L47.92 5.45L47.92 5.45Q48.41 5.64 48.81 5.95L48.81 5.95L48.81 5.95Q49.21 6.26 49.46 6.73L49.46 6.73L49.46 6.73Q49.71 7.21 49.71 7.94L49.71 7.94L49.71 7.94Q49.71 8.65 49.44 9.16L49.44 9.16L49.44 9.16Q49.17 9.67 48.72 10.00L48.72 10.00L48.72 10.00Q48.27 10.33 47.70 10.49L47.70 10.49L47.70 10.49Q47.12 10.65 46.51 10.65L46.51 10.65L46.51 10.65Q45.61 10.65 44.74 10.30L44.74 10.30L44.74 10.30Q43.86 9.95 43.22 9.27L43.22 9.27L43.89 7.67L43.89 7.67Q44.46 8.27 45.19 8.61L45.19 8.61L45.19 8.61Q45.91 8.95 46.56 8.95L46.56 8.95L46.56 8.95Q47.15 8.95 47.47 8.78L47.47 8.78L47.47 8.78Q47.78 8.61 47.80 8.09L47.80 8.09L47.80 8.09Q47.80 7.80 47.68 7.59L47.68 7.59L47.68 7.59Q47.57 7.38 47.36 7.22L47.36 7.22L47.36 7.22Q47.15 7.07 46.87 6.96L46.87 6.96L46.87 6.96Q46.59 6.85 46.26 6.73L46.26 6.73L46.26 6.73Q45.78 6.58 45.30 6.39L45.30 6.39L45.30 6.39Q44.83 6.20 44.45 5.89L44.45 5.89L44.45 5.89Q44.07 5.59 43.84 5.13L43.84 5.13L43.84 5.13Q43.61 4.68 43.61 3.98L43.61 3.98L43.61 3.98Q43.61 3.28 43.86 2.78L43.86 2.78L43.86 2.78Q44.11 2.28 44.53 1.97L44.53 1.97L44.53 1.97Q44.95 1.65 45.50 1.50L45.50 1.50L45.50 1.50Q46.05 1.36 46.63 1.36L46.63 1.36L46.63 1.36Q47.39 1.36 48.11 1.61L48.11 1.61L48.11 1.61Q48.83 1.86 49.42 2.30L49.42 2.30ZM54.66 3.12L54.66 3.12L54.66 3.12Q55.09 3.12 55.43 3.18L55.43 3.18L55.43 3.18Q55.76 3.23 56.00 3.30L56.00 3.30L56.00 3.30Q56.27 3.39 56.49 3.49L56.49 3.49L56.49 4.82L56.49 4.82Q55.94 4.65 55.31 4.59L55.31 4.59L55.31 4.59Q54.67 4.54 54.12 4.74L54.12 4.74L54.12 4.74Q53.58 4.94 53.21 5.45L53.21 5.45L53.21 5.45Q52.85 5.95 52.85 6.89L52.85 6.89L52.85 6.89Q52.85 7.87 53.21 8.38L53.21 8.38L53.21 8.38Q53.58 8.89 54.12 9.06L54.12 9.06L54.12 9.06Q54.67 9.24 55.31 9.15L55.31 9.15L55.31 9.15Q55.94 9.06 56.49 8.85L56.49 8.85L56.49 10.23L56.49 10.23Q56.28 10.36 56.00 10.44L56.00 10.44L56.00 10.44Q55.76 10.53 55.42 10.59L55.42 10.59L55.42 10.59Q55.08 10.65 54.64 10.65L54.64 10.65L54.64 10.65Q54.10 10.65 53.44 10.51L53.44 10.51L53.44 10.51Q52.78 10.37 52.21 9.97L52.21 9.97L52.21 9.97Q51.65 9.56 51.27 8.83L51.27 8.83L51.27 8.83Q50.89 8.09 50.89 6.89L50.89 6.89L50.89 6.89Q50.89 5.70 51.27 4.96L51.27 4.96L51.27 4.96Q51.65 4.21 52.21 3.81L52.21 3.81L52.21 3.81Q52.78 3.40 53.44 3.26L53.44 3.26L53.44 3.26Q54.10 3.12 54.66 3.12ZM61.96 3.12L61.96 3.12L61.96 3.12Q62.61 3.12 63.07 3.34L63.07 3.34L63.07 3.34Q63.53 3.56 63.83 3.93L63.83 3.93L63.83 3.93Q64.13 4.31 64.27 4.83L64.27 4.83L64.27 4.83Q64.41 5.35 64.41 5.95L64.41 5.95L64.41 10.50L62.54 10.50L62.54 6.58L62.54 6.58Q62.54 5.54 62.26 5.05L62.26 5.05L62.26 5.05Q61.98 4.56 61.29 4.56L61.29 4.56L61.29 4.56Q60.47 4.56 60.07 5.25L60.07 5.25L60.07 5.25Q59.67 5.94 59.67 7.06L59.67 7.06L59.67 10.50L57.79 10.50L57.79 1.55L59.57 1.55L59.57 4.27L59.57 4.27Q59.71 4.12 59.88 3.91L59.88 3.91L59.88 3.91Q60.05 3.71 60.31 3.54L60.31 3.54L60.31 3.54Q60.56 3.36 60.96 3.24L60.96 3.24L60.96 3.24Q61.36 3.12 61.96 3.12ZM69.65 3.12L69.65 3.12L69.65 3.12Q70.21 3.12 70.87 3.29L70.87 3.29L70.87 3.29Q71.53 3.46 72.10 3.88L72.10 3.88L72.10 3.88Q72.67 4.30 73.06 5.03L73.06 5.03L73.06 5.03Q73.44 5.75 73.44 6.89L73.44 6.89L73.44 6.89Q73.44 8.02 73.06 8.75L73.06 8.75L73.06 8.75Q72.67 9.48 72.10 9.90L72.10 9.90L72.10 9.90Q71.53 10.32 70.87 10.49L70.87 10.49L70.87 10.49Q70.21 10.65 69.65 10.65L69.65 10.65L69.65 10.65Q69.09 10.65 68.43 10.49L68.43 10.49L68.43 10.49Q67.77 10.32 67.21 9.90L67.21 9.90L67.21 9.90Q66.64 9.48 66.26 8.75L66.26 8.75L66.26 8.75Q65.88 8.02 65.88 6.89L65.88 6.89L65.88 6.89Q65.88 5.75 66.26 5.03L66.26 5.03L66.26 5.03Q66.64 4.30 67.21 3.88L67.21 3.88L67.21 3.88Q67.77 3.46 68.43 3.29L68.43 3.29L68.43 3.29Q69.09 3.12 69.65 3.12ZM69.65 9.25L69.65 9.25L69.65 9.25Q70.43 9.25 70.96 8.64L70.96 8.64L70.96 8.64Q71.48 8.02 71.48 6.89L71.48 6.89L71.48 6.89Q71.48 5.75 70.96 5.14L70.96 5.14L70.96 5.14Q70.43 4.54 69.65 4.54L69.65 4.54L69.65 4.54Q68.89 4.54 68.38 5.14L68.38 5.14L68.38 5.14Q67.86 5.75 67.86 6.89L67.86 6.89L67.86 6.89Q67.86 7.45 68.00 7.89L68.00 7.89L68.00 7.89Q68.14 8.33 68.38 8.63L68.38 8.63L68.38 8.63Q68.61 8.93 68.94 9.09L68.94 9.09L68.94 9.09Q69.27 9.25 69.65 9.25ZM78.22 3.12L78.22 3.12L78.22 3.12Q78.78 3.12 79.44 3.29L79.44 3.29L79.44 3.29Q80.09 3.46 80.67 3.88L80.67 3.88L80.67 3.88Q81.24 4.30 81.63 5.03L81.63 5.03L81.63 5.03Q82.01 5.75 82.01 6.89L82.01 6.89L82.01 6.89Q82.01 8.02 81.63 8.75L81.63 8.75L81.63 8.75Q81.24 9.48 80.67 9.90L80.67 9.90L80.67 9.90Q80.09 10.32 79.44 10.49L79.44 10.49L79.44 10.49Q78.78 10.65 78.22 10.65L78.22 10.65L78.22 10.65Q77.66 10.65 77.00 10.49L77.00 10.49L77.00 10.49Q76.34 10.32 75.78 9.90L75.78 9.90L75.78 9.90Q75.21 9.48 74.83 8.75L74.83 8.75L74.83 8.75Q74.45 8.02 74.45 6.89L74.45 6.89L74.45 6.89Q74.45 5.75 74.83 5.03L74.83 5.03L74.83 5.03Q75.21 4.30 75.78 3.88L75.78 3.88L75.78 3.88Q76.34 3.46 77.00 3.29L77.00 3.29L77.00 3.29Q77.66 3.12 78.22 3.12ZM78.22 9.25L78.22 9.25L78.22 9.25Q79.00 9.25 79.53 8.64L79.53 8.64L79.53 8.64Q80.05 8.02 80.05 6.89L80.05 6.89L80.05 6.89Q80.05 5.75 79.53 5.14L79.53 5.14L79.53 5.14Q79.00 4.54 78.22 4.54L78.22 4.54L78.22 4.54Q77.46 4.54 76.94 5.14L76.94 5.14L76.94 5.14Q76.43 5.75 76.43 6.89L76.43 6.89L76.43 6.89Q76.43 7.45 76.57 7.89L76.57 7.89L76.57 7.89Q76.71 8.33 76.94 8.63L76.94 8.63L76.94 8.63Q77.18 8.93 77.51 9.09L77.51 9.09L77.51 9.09Q77.84 9.25 78.22 9.25ZM85.41 8.48L85.41 8.48L85.41 8.48Q85.43 8.72 85.54 8.86L85.54 8.86L85.54 8.86Q85.65 9.00 85.81 9.06L85.81 9.06L85.81 9.06Q85.97 9.13 86.18 9.13L86.18 9.13L86.18 9.13Q86.38 9.14 86.60 9.11L86.60 9.11L86.60 10.56L86.60 10.56Q86.41 10.60 86.26 10.62L86.26 10.62L86.26 10.62Q86.11 10.64 86.00 10.65L86.00 10.65L86.00 10.65Q85.88 10.67 85.79 10.65L85.79 10.65L85.79 10.65Q85.26 10.65 84.84 10.61L84.84 10.61L84.84 10.61Q84.42 10.57 84.13 10.34L84.13 10.34L84.13 10.34Q83.83 10.11 83.68 9.64L83.68 9.64L83.68 9.64Q83.52 9.17 83.52 8.30L83.52 8.30L83.52 1.55L85.41 1.55L85.41 8.48ZM93.14 3.98L92.51 5.39L92.51 5.39Q92.04 5.03 91.48 4.84L91.48 4.84L91.48 4.84Q90.92 4.66 90.54 4.66L90.54 4.66L90.54 4.66Q90.17 4.66 89.96 4.79L89.96 4.79L89.96 4.79Q89.75 4.91 89.75 5.24L89.75 5.24L89.75 5.24Q89.75 5.52 90.02 5.68L90.02 5.68L90.02 5.68Q90.29 5.85 90.68 6.00L90.68 6.00L90.68 6.00Q91.07 6.15 91.53 6.31L91.53 6.31L91.53 6.31Q91.99 6.47 92.39 6.73L92.39 6.73L92.39 6.73Q92.78 6.99 93.04 7.38L93.04 7.38L93.04 7.38Q93.31 7.78 93.31 8.40L93.31 8.40L93.31 8.40Q93.31 8.99 93.09 9.41L93.09 9.41L93.09 9.41Q92.88 9.84 92.52 10.12L92.52 10.12L92.52 10.12Q92.16 10.39 91.70 10.52L91.70 10.52L91.70 10.52Q91.24 10.65 90.75 10.65L90.75 10.65L90.75 10.65Q90.40 10.65 90.00 10.58L90.00 10.58L90.00 10.58Q89.60 10.50 89.22 10.34L89.22 10.34L89.22 10.34Q88.83 10.18 88.47 9.95L88.47 9.95L88.47 9.95Q88.12 9.72 87.85 9.42L87.85 9.42L88.47 8.05L88.47 8.05Q88.96 8.58 89.52 8.86L89.52 8.86L89.52 8.86Q90.08 9.13 90.54 9.13L90.54 9.13L90.54 9.13Q90.93 9.13 91.29 8.99L91.29 8.99L91.29 8.99Q91.66 8.85 91.67 8.51L91.67 8.51L91.67 8.51Q91.69 8.19 91.43 7.99L91.43 7.99L91.43 7.99Q91.17 7.78 90.78 7.63L90.78 7.63L90.78 7.63Q90.38 7.48 89.92 7.31L89.92 7.31L89.92 7.31Q89.46 7.15 89.07 6.90L89.07 6.90L89.07 6.90Q88.68 6.65 88.41 6.27L88.41 6.27L88.41 6.27Q88.14 5.89 88.16 5.29L88.16 5.29L88.16 5.29Q88.16 4.72 88.36 4.30L88.36 4.30L88.36 4.30Q88.56 3.89 88.90 3.63L88.90 3.63L88.90 3.63Q89.24 3.37 89.68 3.25L89.68 3.25L89.68 3.25Q90.12 3.12 90.59 3.12L90.59 3.12L90.59 3.12Q90.87 3.12 91.21 3.18L91.21 3.18L91.21 3.18Q91.55 3.23 91.89 3.35L91.89 3.35L91.89 3.35Q92.23 3.46 92.56 3.61L92.56 3.61L92.56 3.61Q92.89 3.77 93.14 3.98L93.14 3.98ZM104.45 1.36L106.41 1.36L106.41 10.50L104.45 10.50L104.45 6.57L100.84 6.57L100.84 10.50L98.90 10.50L98.90 1.36L100.84 1.36L100.84 5.01L104.45 5.01L104.45 1.36ZM117.14 6.06L117.14 6.06L117.14 6.06Q117.14 6.93 116.97 7.61L116.97 7.61L116.97 7.61Q116.80 8.29 116.51 8.80L116.51 8.80L116.51 8.80Q116.21 9.31 115.81 9.67L115.81 9.67L115.81 9.67Q115.42 10.02 114.97 10.26L114.97 10.26L116.96 12.26L114.70 12.26L113.32 10.74L113.32 10.74Q112.80 10.78 112.22 10.74L112.22 10.74L112.22 10.74Q111.64 10.70 111.07 10.52L111.07 10.52L111.07 10.52Q110.50 10.35 109.98 10.02L109.98 10.02L109.98 10.02Q109.47 9.69 109.07 9.16L109.07 9.16L109.07 9.16Q108.68 8.62 108.44 7.86L108.44 7.86L108.44 7.86Q108.21 7.10 108.21 6.06L108.21 6.06L108.21 6.06Q108.21 4.63 108.65 3.72L108.65 3.72L108.65 3.72Q109.10 2.81 109.77 2.29L109.77 2.29L109.77 2.29Q110.43 1.76 111.22 1.56L111.22 1.56L111.22 1.56Q112 1.36 112.67 1.36L112.67 1.36L112.67 1.36Q113.36 1.36 114.14 1.56L114.14 1.56L114.14 1.56Q114.93 1.76 115.59 2.29L115.59 2.29L115.59 2.29Q116.26 2.81 116.70 3.72L116.70 3.72L116.70 3.72Q117.14 4.63 117.14 6.06ZM110.25 6.06L110.25 6.06L110.25 6.06Q110.25 7.74 110.92 8.49L110.92 8.49L110.92 8.49Q111.58 9.24 112.67 9.24L112.67 9.24L112.67 9.24Q113.23 9.24 113.68 9.06L113.68 9.06L113.68 9.06Q114.13 8.88 114.44 8.49L114.44 8.49L114.44 8.49Q114.76 8.11 114.93 7.50L114.93 7.50L114.93 7.50Q115.09 6.89 115.09 6.05L115.09 6.05L115.09 6.05Q115.09 4.40 114.44 3.65L114.44 3.65L114.44 3.65Q113.79 2.90 112.67 2.90L112.67 2.90L112.67 2.90Q111.58 2.90 110.92 3.65L110.92 3.65L110.92 3.65Q110.25 4.41 110.25 6.06Z"></path></g><!----><g data-v-423bf9ae="" id="caa6b7f3-e0b7-4e3d-8077-c76cd9d9c3f1" transform="matrix(1.4964146686053978,0,0,1.4964146686053978,191.5550957842812,-28.90657485162214)" stroke="none" fill="#ff5964"><path d="M28.8 34.8l4.2-2.6 24.1 1.7-9.9 6.3-18.4-5.4zM10.4 54.9l12.1 3.7c.7.4 1.8.3 2.5-.2l2.2-1.5C45.8 44.2 65 32.2 84.4 20.8c2.7-1.5 6.3-1 8.1 1.5 2 2.8 1.3 6.6-1.7 8.5l-21 14.7-13 30.8-6.1 3.8s4.5-26.8 4.4-26.7L22.5 67.2c-.8.3-1.6.3-2.3-.2L6.4 57.4l4-2.5z"></path></g><!----></svg>