<?xml version="1.0" encoding="UTF-8"?>
<svg width="283px" height="35px" viewBox="0 0 283 35" version="1.1" xmlns="http://www.w3.org/2000/svg" xmlns:xlink="http://www.w3.org/1999/xlink">
    <!-- Generator: Sketch 61.2 (89653) - https://sketch.com -->
    <title>Artboard</title>
    <desc>Created with Sketch.</desc>
    <g id="Artboard" stroke="none" stroke-width="1" fill="none" fill-rule="evenodd">
        <g id="Group-Copy-14" transform="translate(3.000000, 4.000000)" fill="#1376CD">
            <g id="Group-22">
                <polygon id="Fill-1" points="6.99849762 0 0 7.85714286 21.5239728 7.84704281 28.5185185 0"></polygon>
                <polygon id="Fill-2" points="30.1401809 0 16.3981481 15.7142857 38.8748277 15.7142857 52.7592593 0"></polygon>
                <polygon id="Fill-3" points="54.6512639 0 32.7962963 25 55.1918333 25 77 0"></polygon>
            </g>
            <path d="M83.1355394,22.2232416 L83.1355394,15.0132518 L89.9314487,15.0132518 L89.9314487,13.2528033 L83.1355394,13.2528033 L83.1355394,7.6687054 L91.0325862,7.6687054 L91.0325862,5.89704383 L81,5.89704383 L81,22.2232416 L83.1355394,22.2232416 Z M95.076764,22.2232416 L95.076764,5 L93.0190828,5 L93.0190828,22.2232416 L95.076764,22.2232416 Z M99.1654322,8.04994903 C99.5658458,8.04994903 99.8698636,7.93781855 100.077485,7.71355759 C100.285107,7.48929664 100.388918,7.20897044 100.388918,6.872579 C100.388918,6.53618756 100.285107,6.25212368 100.077485,6.02038736 C99.8698636,5.78865104 99.5658458,5.67278287 99.1654322,5.67278287 C98.7650185,5.67278287 98.4628545,5.78865104 98.2589402,6.02038736 C98.0550258,6.25212368 97.9530686,6.53618756 97.9530686,6.872579 C97.9530686,7.20897044 98.0550258,7.48929664 98.2589402,7.71355759 C98.4628545,7.93781855 98.7650185,8.04994903 99.1654322,8.04994903 Z M100.177589,22.2232416 L100.177589,10.0907238 L98.1199077,10.0907238 L98.1199077,22.2232416 L100.177589,22.2232416 Z M107.61416,27 C109.171324,27 110.411494,26.5477404 111.33467,25.6432212 C112.257846,24.738702 112.719434,23.5015291 112.719434,21.9317023 L112.719434,21.9317023 L112.719434,10.0907238 L110.839714,10.0907238 L110.739611,11.4362895 C109.916538,10.3897384 108.77091,9.86646279 107.302727,9.86646279 C105.871619,9.86646279 104.722284,10.4252463 103.854721,11.5428135 C102.987158,12.6603806 102.553376,14.1647978 102.553376,16.0560652 C102.553376,18.0295617 102.989012,19.5881753 103.860282,20.7319062 C104.731553,21.8756371 105.871619,22.4475025 107.280482,22.4475025 C108.704175,22.4475025 109.827558,21.9690792 110.65063,21.0122324 L110.65063,21.0122324 L110.65063,22.0550459 C110.65063,23.0866463 110.370711,23.8865104 109.810874,24.4546381 C109.251036,25.0227659 108.4706,25.3068298 107.469566,25.3068298 C106.194175,25.3068298 105.115282,24.7573904 104.232889,23.6585117 L104.232889,23.6585117 L103.16512,24.90316 C103.602609,25.5535168 104.236597,26.0655793 105.067084,26.4393476 C105.897572,26.8131159 106.746597,27 107.61416,27 Z M107.792122,20.687054 C106.791087,20.687054 106.012505,20.2964662 105.456375,19.5152905 C104.900245,18.7341148 104.62218,17.6595311 104.62218,16.2915392 C104.62218,14.751614 104.903953,13.5891947 105.467498,12.8042813 C106.031043,12.019368 106.813333,11.6269113 107.814367,11.6269113 C109.074928,11.6269113 110.020349,12.2062521 110.65063,13.3649337 L110.65063,13.3649337 L110.65063,18.9041794 C110.042595,20.0927625 109.089758,20.687054 107.792122,20.687054 Z M117.453213,22.2232416 L117.453213,13.5779817 C117.734985,12.9949032 118.127984,12.5239551 118.632209,12.1651376 C119.136433,11.8063201 119.722224,11.6269113 120.38958,11.6269113 C121.212652,11.6269113 121.818834,11.8362215 122.208125,12.254842 C122.597416,12.6734625 122.795769,13.3200815 122.803184,14.1946993 L122.803184,14.1946993 L122.803184,22.2232416 L124.860865,22.2232416 L124.860865,14.2059123 C124.83862,11.312946 123.555813,9.86646279 121.012445,9.86646279 C119.551677,9.86646279 118.365266,10.4308529 117.453213,11.559633 L117.453213,11.559633 L117.453213,5 L115.395532,5 L115.395532,22.2232416 L117.453213,22.2232416 Z M131.02946,22.4475025 C131.5411,22.4475025 132.067569,22.3727489 132.608869,22.2232416 L132.608869,22.2232416 L132.608869,20.5412844 C132.193625,20.6309888 131.867362,20.675841 131.63008,20.675841 C131.148101,20.675841 130.807008,20.5543663 130.606801,20.3114169 C130.406594,20.0684676 130.306491,19.7040435 130.306491,19.2181448 L130.306491,19.2181448 L130.306491,11.6941896 L132.553256,11.6941896 L132.553256,10.0907238 L130.306491,10.0907238 L130.306491,7.1529052 L128.24881,7.1529052 L128.24881,10.0907238 L126.057657,10.0907238 L126.057657,11.6941896 L128.24881,11.6941896 L128.24881,19.2181448 C128.24881,20.2497452 128.482384,21.0458716 128.949533,21.606524 C129.416683,22.1671764 130.109992,22.4475025 131.02946,22.4475025 Z M145.201878,22.4475025 C146.914759,22.4475025 148.282839,22.0494393 149.306118,21.2533129 C150.329397,20.4571865 150.841037,19.3975535 150.841037,18.0744139 C150.841037,17.2446483 150.657514,16.5232756 150.290468,15.9102956 C149.923422,15.2973157 149.359877,14.7609582 148.599833,14.3012232 C147.839788,13.8414883 146.786849,13.420999 145.441014,13.0397554 C144.095179,12.6585117 143.142343,12.2380224 142.582506,11.7782875 C142.022668,11.3185525 141.742749,10.7560313 141.742749,10.0907238 C141.742749,9.26095821 142.037498,8.61247027 142.626996,8.14525994 C143.216494,7.67804961 144.037713,7.44444444 145.090652,7.44444444 C146.225158,7.44444444 147.103843,7.72663948 147.726709,8.29102956 C148.349574,8.85541964 148.661007,9.63098879 148.661007,10.617737 L148.661007,10.617737 L150.807669,10.617737 C150.807669,9.7132178 150.568533,8.87971458 150.090261,8.11722732 C149.61199,7.35474006 148.937218,6.75671084 148.065948,6.32313965 C147.194678,5.88956847 146.202912,5.67278287 145.090652,5.67278287 C143.459337,5.67278287 142.133894,6.09327217 141.114322,6.93425076 C140.094751,7.77522936 139.584965,8.83860007 139.584965,10.1243629 C139.584965,11.2606184 140.002062,12.2155963 140.836257,12.9892966 C141.670452,13.7629969 143.003311,14.4152226 144.834832,14.9459735 C146.295601,15.3720693 147.30405,15.8037717 147.86018,16.2410805 C148.41631,16.6783894 148.694375,17.2969759 148.694375,18.09684 C148.694375,18.896704 148.394065,19.5283724 147.793444,19.9918451 C147.192824,20.4553177 146.328968,20.687054 145.201878,20.687054 C143.993222,20.687054 143.02741,20.4011213 142.304441,19.8292559 C141.581472,19.2573904 141.219987,18.4780836 141.219987,17.4913354 L141.219987,17.4913354 L139.073325,17.4913354 C139.073325,18.4407068 139.334706,19.2891607 139.857468,20.0366972 C140.380231,20.7842338 141.123591,21.3729188 142.08755,21.8027523 C143.051509,22.2325858 144.089618,22.4475025 145.201878,22.4475025 Z M157.654742,22.4475025 C158.4704,22.4475025 159.243421,22.2606184 159.973805,21.8868502 C160.704189,21.5130819 161.288125,21.0122324 161.725614,20.3843017 C162.163103,19.756371 162.400386,19.0948012 162.437461,18.3995923 L162.437461,18.3995923 L160.491006,18.3995923 C160.431685,19.0723751 160.127667,19.6330275 159.578952,20.0815494 C159.030237,20.5300714 158.388834,20.7543323 157.654742,20.7543323 C156.594388,20.7543323 155.77873,20.3768264 155.20777,19.6218145 C154.63681,18.8668026 154.35133,17.79035 154.35133,16.3924567 L154.35133,16.3924567 L154.35133,16 C154.35133,14.5647299 154.638664,13.46772 155.213331,12.7089704 C155.787999,11.9502209 156.598095,11.5708461 157.64362,11.5708461 C158.422202,11.5708461 159.076582,11.8231397 159.606759,12.3277268 C160.136936,12.832314 160.431685,13.4770642 160.491006,14.2619776 L160.491006,14.2619776 L162.437461,14.2619776 C162.37814,12.961264 161.901722,11.9034998 161.008207,11.088685 C160.114691,10.2738702 158.993162,9.86646279 157.64362,9.86646279 C156.54619,9.86646279 155.595207,10.1206252 154.790673,10.6289501 C153.986138,11.1372749 153.368833,11.8511723 152.93876,12.7706422 C152.508686,13.6901121 152.293649,14.740401 152.293649,15.9215087 L152.293649,15.9215087 L152.293649,16.2691131 C152.293649,18.1828067 152.777482,19.6909616 153.745148,20.793578 C154.712814,21.8961944 156.016013,22.4475025 157.654742,22.4475025 Z M166.381535,22.2232416 L166.381535,13.5779817 C166.663308,12.9949032 167.056306,12.5239551 167.560531,12.1651376 C168.064756,11.8063201 168.650546,11.6269113 169.317902,11.6269113 C170.140974,11.6269113 170.747156,11.8362215 171.136447,12.254842 C171.525738,12.6734625 171.724091,13.3200815 171.731506,14.1946993 L171.731506,14.1946993 L171.731506,22.2232416 L173.789188,22.2232416 L173.789188,14.2059123 C173.766942,11.312946 172.484136,9.86646279 169.940768,9.86646279 C168.479999,9.86646279 167.293589,10.4308529 166.381535,11.559633 L166.381535,11.559633 L166.381535,5 L164.323854,5 L164.323854,22.2232416 L166.381535,22.2232416 Z M181.437088,22.4475025 C183.453987,22.4475025 184.96666,21.6663269 185.975109,20.1039755 L185.975109,20.1039755 L184.718255,19.1172273 C184.340087,19.6106014 183.898891,20.0067958 183.394666,20.3058104 C182.890441,20.604825 182.274991,20.7543323 181.548314,20.7543323 C180.525035,20.7543323 179.681571,20.3861706 179.017922,19.6498471 C178.354274,18.9135236 178.007619,17.9473327 177.977959,16.7512742 L177.977959,16.7512742 L186.130826,16.7512742 L186.130826,15.8878695 C186.130826,13.9517499 185.697044,12.4641522 184.829482,11.4250765 C183.961919,10.3860007 182.745848,9.86646279 181.181268,9.86646279 C180.224725,9.86646279 179.33677,10.1337071 178.517405,10.6681957 C177.69804,11.2026843 177.060345,11.9427455 176.604318,12.8883792 C176.148291,13.8340129 175.920278,14.9085967 175.920278,16.1121305 L175.920278,16.1121305 L175.920278,16.4933741 C175.920278,18.3024125 176.431918,19.7470268 177.455197,20.8272171 C178.478476,21.9074074 179.805773,22.4475025 181.437088,22.4475025 Z M184.073145,15.0468909 L178.044695,15.0468909 C178.178166,13.9480122 178.526674,13.0939517 179.090219,12.4847095 C179.653764,11.8754672 180.350781,11.5708461 181.181268,11.5708461 C182.041416,11.5708461 182.723602,11.8605165 183.227827,12.4398573 C183.732052,13.0191981 184.013824,13.8358818 184.073145,14.8899083 L184.073145,14.8899083 L184.073145,15.0468909 Z M192.310543,22.4475025 C193.778726,22.4475025 194.924354,21.9391777 195.747427,20.922528 L195.747427,20.922528 L195.84753,22.2232416 L197.738372,22.2232416 L197.738372,5 L195.680691,5 L195.680691,11.324159 C194.857619,10.3523615 193.741651,9.86646279 192.332788,9.86646279 C190.91651,9.86646279 189.770882,10.4327217 188.895904,11.5652396 C188.020927,12.6977574 187.583438,14.1946993 187.583438,16.0560652 L187.583438,16.0560652 L187.583438,16.2130479 C187.583438,18.0669385 188.02278,19.5694869 188.901466,20.7206932 C189.780151,21.8718994 190.91651,22.4475025 192.310543,22.4475025 Z M192.822183,20.687054 C191.828564,20.687054 191.049982,20.298335 190.486436,19.520897 C189.922891,18.7434591 189.641119,17.6670065 189.641119,16.2915392 C189.641119,14.751614 189.922891,13.5891947 190.486436,12.8042813 C191.049982,12.019368 191.835979,11.6269113 192.844428,11.6269113 C194.119819,11.6269113 195.065241,12.1987768 195.680691,13.3425076 L195.680691,13.3425076 L195.680691,18.9153925 C195.080071,20.0965002 194.127235,20.687054 192.822183,20.687054 Z M204.407484,22.4475025 C205.957233,22.4475025 207.132521,21.9728169 207.933349,21.0234455 L207.933349,21.0234455 L207.977839,22.2232416 L209.935417,22.2232416 L209.935417,10.0907238 L207.877736,10.0907238 L207.877736,18.9153925 C207.358681,20.0965002 206.313156,20.687054 204.741162,20.687054 C203.258149,20.687054 202.516642,19.7675841 202.516642,17.9286442 L202.516642,17.9286442 L202.516642,10.0907238 L200.458961,10.0907238 L200.458961,17.9847095 C200.466376,19.4573564 200.805615,20.569317 201.476679,21.3205912 C202.147742,22.0718654 203.124677,22.4475025 204.407484,22.4475025 Z M214.869403,22.2232416 L214.869403,5 L212.811721,5 L212.811721,22.2232416 L214.869403,22.2232416 Z M222.728633,22.4475025 C224.745531,22.4475025 226.258205,21.6663269 227.266654,20.1039755 L227.266654,20.1039755 L226.0098,19.1172273 C225.631631,19.6106014 225.190435,20.0067958 224.68621,20.3058104 C224.181986,20.604825 223.566535,20.7543323 222.839859,20.7543323 C221.816579,20.7543323 220.973115,20.3861706 220.309467,19.6498471 C219.645818,18.9135236 219.299164,17.9473327 219.269504,16.7512742 L219.269504,16.7512742 L227.42237,16.7512742 L227.42237,15.8878695 C227.42237,13.9517499 226.988589,12.4641522 226.121026,11.4250765 C225.253463,10.3860007 224.037392,9.86646279 222.472813,9.86646279 C221.516269,9.86646279 220.628315,10.1337071 219.80895,10.6681957 C218.989585,11.2026843 218.351889,11.9427455 217.895862,12.8883792 C217.439836,13.8340129 217.211822,14.9085967 217.211822,16.1121305 L217.211822,16.1121305 L217.211822,16.4933741 C217.211822,18.3024125 217.723462,19.7470268 218.746741,20.8272171 C219.770021,21.9074074 221.097318,22.4475025 222.728633,22.4475025 Z M225.364689,15.0468909 L219.336239,15.0468909 C219.46971,13.9480122 219.818219,13.0939517 220.381764,12.4847095 C220.945309,11.8754672 221.642325,11.5708461 222.472813,11.5708461 C223.332961,11.5708461 224.015147,11.8605165 224.519371,12.4398573 C225.023596,13.0191981 225.305369,13.8358818 225.364689,14.8899083 L225.364689,14.8899083 L225.364689,15.0468909 Z M237.045645,22.2232416 L237.045645,15.8318043 L240.860697,15.8318043 C242.692219,15.8318043 244.099228,15.4038396 245.081724,14.5479103 C246.06422,13.691981 246.555469,12.4716276 246.555469,10.8868502 C246.555469,9.38430173 246.053098,8.17703024 245.048356,7.26503568 C244.043615,6.35304111 242.655143,5.89704383 240.882942,5.89704383 L240.882942,5.89704383 L234.910105,5.89704383 L234.910105,22.2232416 L237.045645,22.2232416 Z M240.882942,14.0713558 L237.045645,14.0713558 L237.045645,7.6687054 L241.005291,7.6687054 C242.065645,7.6911315 242.89984,7.99388379 243.507876,8.57696228 C244.115912,9.16004077 244.419929,9.93747876 244.419929,10.9092762 C244.419929,11.9334013 244.115912,12.7164458 243.507876,13.2584098 C242.89984,13.8003738 242.024863,14.0713558 240.882942,14.0713558 L240.882942,14.0713558 Z M250.588524,22.2232416 L250.588524,13.6116208 C251.070503,12.4529392 251.986264,11.8735984 253.335806,11.8735984 C253.699145,11.8735984 254.03653,11.8997621 254.347963,11.9520897 L254.347963,11.9520897 L254.347963,10.0234455 C254.140341,9.91879035 253.836323,9.86646279 253.43591,9.86646279 C252.197594,9.86646279 251.24105,10.4084268 250.566279,11.4923547 L250.566279,11.4923547 L250.532911,10.0907238 L248.530843,10.0907238 L248.530843,22.2232416 L250.588524,22.2232416 Z M260.52768,22.4475025 C261.61028,22.4475025 262.568678,22.1858648 263.402873,21.6625892 C264.237068,21.1393136 264.878471,20.4085967 265.327083,19.4704383 C265.775694,18.53228 266,17.472647 266,16.2915392 L266,16.2915392 L266,16.1457696 C266,14.2470268 265.493922,12.72579 264.481765,11.5820591 C263.469608,10.4383282 262.144165,9.86646279 260.505435,9.86646279 C259.44508,9.86646279 258.501513,10.1243629 257.674733,10.6401631 C256.847953,11.1559633 256.202842,11.8885491 255.7394,12.8379205 C255.275959,13.7872919 255.044238,14.8562691 255.044238,16.0448522 L255.044238,16.0448522 L255.044238,16.1906218 C255.044238,18.0744139 255.550316,19.5881753 256.562473,20.7319062 C257.57463,21.8756371 258.896365,22.4475025 260.52768,22.4475025 Z M260.52768,20.7543323 C259.489571,20.7543323 258.660937,20.3469249 258.041779,19.5321101 C257.422621,18.7172953 257.113042,17.637105 257.113042,16.2915392 C257.113042,14.7740401 257.424475,13.6078831 258.04734,12.7930683 C258.670206,11.9782535 259.489571,11.5708461 260.505435,11.5708461 C261.543544,11.5708461 262.375886,11.98386 263.002459,12.8098879 C263.629032,13.6359157 263.942319,14.7142372 263.942319,16.0448522 C263.942319,17.5324499 263.634593,18.6892627 263.019143,19.5152905 C262.403692,20.3413184 261.573205,20.7543323 260.52768,20.7543323 Z" id="FlightSchedulePro" fill-rule="nonzero"></path>
            <path d="M269.390467,9 L269.390467,4.54258242 L271.090678,4.54258242 L271.090678,4 L267,4 L267,4.54258242 L268.696578,4.54258242 L268.696578,9 L269.390467,9 Z M272.433408,9 L272.433408,7.05288462 L272.364383,4.96153846 L274.09729,9 L274.63133,9 L276.36787,4.95123626 L276.302478,7.05288462 L276.302478,9 L277,9 L277,4 L276.095401,4 L274.366127,8.07967033 L272.636852,4 L271.735886,4 L271.735886,9 L272.433408,9 Z" id="TM" fill-rule="nonzero"></path>
        </g>
    </g>
</svg>