<?xml version="1.0" encoding="UTF-8" standalone="no"?>
<svg
   width="257.34769"
   zoomAndPan="magnify"
   viewBox="0 0 193.01077 94.535017"
   height="126.04669"
   preserveAspectRatio="xMidYMid"
   version="1.0"
   id="svg228"
   sodipodi:docname="Pitcairn Flight Logo (550 × 100 px).svg"
   inkscape:export-filename="pitcairn-logo-400-white.webp"
   inkscape:export-xdpi="96"
   inkscape:export-ydpi="96"
   xmlns:inkscape="http://www.inkscape.org/namespaces/inkscape"
   xmlns:sodipodi="http://sodipodi.sourceforge.net/DTD/sodipodi-0.dtd"
   xmlns="http://www.w3.org/2000/svg"
   xmlns:svg="http://www.w3.org/2000/svg">
  <sodipodi:namedview
     id="namedview230"
     pagecolor="#ffffff"
     bordercolor="#000000"
     borderopacity="0.25"
     inkscape:showpageshadow="2"
     inkscape:pageopacity="0.0"
     inkscape:pagecheckerboard="0"
     inkscape:deskcolor="#d1d1d1"
     showgrid="false" />
  <defs
     id="defs10">
    <clipPath
       id="91f024dea9">
      <path
         d="M 7.664062,7.535156 H 107.58203 V 48.738281 H 7.664062 Z m 0,0"
         clip-rule="nonzero"
         id="path7" />
    </clipPath>
  </defs>
  <path
     fill="#0d9488"
     d="m 126.64591,34.71875 h -19.96094 v -5.125 c 0,-1.710937 1.39063,-3.101562 3.10938,-3.101562 h 19.96484 v 5.125 c 0,1.714844 -1.39062,3.101562 -3.11328,3.101562"
     fill-opacity="1"
     fill-rule="nonzero"
     id="path18" />
  <path
     fill="#164e63"
     d="m 132.9545,21.800782 h -19.82812 c 0,-4.539063 2.78516,-8.226563 6.21875,-8.226563 h 19.82812 c 0,4.546875 -2.78515,8.226563 -6.21875,8.226563"
     fill-opacity="1"
     fill-rule="nonzero"
     id="path20" />
  <path
     fill="#0d9488"
     d="m 66.97013,34.71875 h 19.960938 v -5.125 c 0,-1.710937 -1.394532,-3.101562 -3.109376,-3.101562 H 63.860755 v 5.125 c 0,1.714844 1.390625,3.101562 3.109375,3.101562"
     fill-opacity="1"
     fill-rule="nonzero"
     id="path22" />
  <path
     fill="#164e63"
     d="m 60.661536,21.800782 h 19.832032 c 0,-4.539063 -2.785157,-8.226563 -6.21875,-8.226563 H 54.442786 c 0,4.546875 2.785156,8.226563 6.21875,8.226563"
     fill-opacity="1"
     fill-rule="nonzero"
     id="path24" />
  <g
     clip-path="url(#91f024dea9)"
     id="g28"
     transform="translate(39.47013,-7.535156)">
    <path
       fill="#475569"
       d="m 107.45703,7.535156 c 0,4.546875 -3.69531,8.226563 -8.249999,8.226563 h -21.84375 c -1.957031,0 -3.738281,1.140625 -4.558593,2.910156 l -13.5625,29.191406 c -0.292969,0.636719 -0.933594,1.039063 -1.636719,1.039063 -0.703125,0 -1.34375,-0.402344 -1.636719,-1.042969 l -13.542969,-29.1875 c -0.820312,-1.769531 -2.601562,-2.910156 -4.558593,-2.910156 h -21.84375 c -2.277344,0 -4.339844,-0.917969 -5.835938,-2.40625 C 8.695312,11.867188 7.773438,9.808594 7.773438,7.535156 h 34.324218 c 2.59375,0 4.949219,1.503906 6.042969,3.851563 l 9.476563,20.441406 9.476562,-20.441406 c 1.089844,-2.347657 3.445312,-3.851563 6.042969,-3.851563 h 34.320311"
       fill-opacity="1"
       fill-rule="nonzero"
       id="path26" />
  </g>
  <g
     fill="#000000"
     fill-opacity="1"
     id="g36"
     transform="translate(-116.52987,52.464844)"
     style="fill:#ffffff">
    <g
       transform="translate(114.89706,21.194627)"
       id="g34"
       style="fill:#ffffff">
      <g
         id="g32"
         style="fill:#ffffff">
        <path
           d="m 9.835938,-12.40625 c 2.050781,0 3.019531,1.136719 3.019531,2.984375 0,1.84375 -0.96875,2.980469 -3.019531,2.980469 H 3.191406 V -12.40625 Z M 3.191406,0 v -5.058594 h 6.644532 c 2.914062,0 4.597656,-1.613281 4.597656,-4.363281 0,-2.753906 -1.683594,-4.367187 -4.597656,-4.367187 H 1.632812 V 0 Z m 0,0"
           id="path30"
           style="fill:#ffffff" />
      </g>
    </g>
  </g>
  <g
     fill="#000000"
     fill-opacity="1"
     id="g44"
     transform="translate(-116.52987,52.464844)"
     style="fill:#ffffff">
    <g
       transform="translate(130.76785,21.194627)"
       id="g42"
       style="fill:#ffffff">
      <g
         id="g40"
         style="fill:#ffffff">
        <path
           d="M 1.730469,0 H 3.289062 V -13.789062 H 1.730469 Z m 0,0"
           id="path38"
           style="fill:#ffffff" />
      </g>
    </g>
  </g>
  <g
     fill="#000000"
     fill-opacity="1"
     id="g52"
     transform="translate(-116.52987,52.464844)"
     style="fill:#ffffff">
    <g
       transform="translate(135.78574,21.194627)"
       id="g50"
       style="fill:#ffffff">
      <g
         id="g48"
         style="fill:#ffffff">
        <path
           d="m 1.058594,-13.789062 v 1.382812 H 7.097656 V 0 H 8.65625 v -12.40625 h 6.035156 v -1.382812 z m 0,0"
           id="path46"
           style="fill:#ffffff" />
      </g>
    </g>
  </g>
  <g
     fill="#000000"
     fill-opacity="1"
     id="g60"
     transform="translate(-116.52987,52.464844)"
     style="fill:#ffffff">
    <g
       transform="translate(151.53156,21.194627)"
       id="g58"
       style="fill:#ffffff">
      <g
         id="g56"
         style="fill:#ffffff">
        <path
           d="m 2.847656,-6.894531 c 0,-3.136719 2,-5.703125 6.644532,-5.703125 2.738281,0 4.671874,1.222656 4.671874,1.222656 l 0.816407,-1.117188 c 0,0 -1.863281,-1.488281 -5.488281,-1.488281 -5.472657,0 -8.242188,3.132813 -8.242188,7.085938 0,3.953125 2.769531,7.085937 8.242188,7.085937 3.625,0 5.488281,-1.488281 5.488281,-1.488281 l -0.816407,-1.117187 c 0,0 -1.933593,1.222656 -4.671874,1.222656 -4.644532,0 -6.644532,-2.570313 -6.644532,-5.703125 z m 0,0"
           id="path54"
           style="fill:#ffffff" />
      </g>
    </g>
  </g>
  <g
     fill="#000000"
     fill-opacity="1"
     id="g68"
     transform="translate(-116.52987,52.464844)"
     style="fill:#ffffff">
    <g
       transform="translate(167.56575,21.194627)"
       id="g66"
       style="fill:#ffffff">
      <g
         id="g64"
         style="fill:#ffffff">
        <path
           d="m 15.066406,0 h 1.703125 L 9.28125,-13.789062 H 8.261719 L 0.769531,0 h 1.703125 l 2.269532,-4.191406 h 8.046874 z m -6.296875,-11.617188 3.269531,6.039063 H 5.492188 Z m 0,0"
           id="path62"
           style="fill:#ffffff" />
      </g>
    </g>
  </g>
  <g
     fill="#000000"
     fill-opacity="1"
     id="g76"
     transform="translate(-116.52987,52.464844)"
     style="fill:#ffffff">
    <g
       transform="translate(185.09955,21.194627)"
       id="g74"
       style="fill:#ffffff">
      <g
         id="g72"
         style="fill:#ffffff">
        <path
           d="M 1.730469,0 H 3.289062 V -13.789062 H 1.730469 Z m 0,0"
           id="path70"
           style="fill:#ffffff" />
      </g>
    </g>
  </g>
  <g
     fill="#000000"
     fill-opacity="1"
     id="g84"
     transform="translate(-116.52987,52.464844)"
     style="fill:#ffffff">
    <g
       transform="translate(190.11745,21.194627)"
       id="g82"
       style="fill:#ffffff">
      <g
         id="g80"
         style="fill:#ffffff">
        <path
           d="M 3.191406,0 V -5.828125 H 9.519531 L 12.933594,0 h 1.722656 l -3.472656,-5.914062 c 2.164062,-0.308594 3.257812,-1.921876 3.257812,-3.894532 0,-2.222656 -1.324218,-3.980468 -4.125,-3.980468 H 1.632812 V 0 Z m 7.125,-12.40625 c 1.847656,0 2.550782,1.15625 2.550782,2.597656 0,1.441406 -0.703126,2.597656 -2.550782,2.597656 h -7.125 v -5.195312 z m 0,0"
           id="path78"
           style="fill:#ffffff" />
      </g>
    </g>
  </g>
  <g
     fill="#000000"
     fill-opacity="1"
     id="g92"
     transform="translate(-116.52987,52.464844)"
     style="fill:#ffffff">
    <g
       transform="translate(206.01707,21.194627)"
       id="g90"
       style="fill:#ffffff">
      <g
         id="g88"
         style="fill:#ffffff">
        <path
           d="M 1.632812,0 H 3.191406 V -11.761719 L 13.058594,0 h 1.769531 V -13.789062 H 13.269531 V -2.027344 L 3.402344,-13.789062 H 1.632812 Z m 0,0"
           id="path86"
           style="fill:#ffffff" />
      </g>
    </g>
  </g>
  <g
     fill="#000000"
     fill-opacity="1"
     id="g106"
     transform="translate(-116.52987,52.464844)"
     style="fill:#ffffff">
    <g
       transform="translate(227.98238,21.194627)"
       id="g104"
       style="fill:#ffffff">
      <g
         id="g102"
         style="fill:#ffffff">
        <path
           d="m 3.191406,-7.742188 v -4.664062 h 10.375 v -1.382812 H 1.632812 V 0 h 1.558594 v -6.355469 h 9.828125 v -1.386719 z m 0,0"
           id="path100"
           style="fill:#ffffff" />
      </g>
    </g>
  </g>
  <g
     fill="#000000"
     fill-opacity="1"
     id="g114"
     transform="translate(-116.52987,52.464844)"
     style="fill:#ffffff">
    <g
       transform="translate(242.98801,21.194627)"
       id="g112"
       style="fill:#ffffff">
      <g
         id="g110"
         style="fill:#ffffff">
        <path
           d="M 3.191406,-13.789062 H 1.632812 V 0 H 12.710938 V -1.382812 H 3.191406 Z m 0,0"
           id="path108"
           style="fill:#ffffff" />
      </g>
    </g>
  </g>
  <g
     fill="#000000"
     fill-opacity="1"
     id="g122"
     transform="translate(-116.52987,52.464844)"
     style="fill:#ffffff">
    <g
       transform="translate(256.94584,21.194627)"
       id="g120"
       style="fill:#ffffff">
      <g
         id="g118"
         style="fill:#ffffff">
        <path
           d="M 1.730469,0 H 3.289062 V -13.789062 H 1.730469 Z m 0,0"
           id="path116"
           style="fill:#ffffff" />
      </g>
    </g>
  </g>
  <g
     fill="#000000"
     fill-opacity="1"
     id="g130"
     transform="translate(-116.52987,52.464844)"
     style="fill:#ffffff">
    <g
       transform="translate(261.96373,21.194627)"
       id="g128"
       style="fill:#ffffff">
      <g
         id="g126"
         style="fill:#ffffff">
        <path
           d="m 2.847656,-6.894531 c 0,-3.136719 2,-5.703125 6.644532,-5.703125 2.738281,0 4.671874,1.222656 4.671874,1.222656 l 0.816407,-1.117188 c 0,0 -1.863281,-1.488281 -5.488281,-1.488281 -5.472657,0 -8.242188,3.132813 -8.242188,7.085938 0,3.953125 2.769531,7.085937 8.242188,7.085937 2.210937,0 4.269531,-0.316406 5.730468,-1.480468 V -7.644531 H 9.585938 v 1.382812 h 4.175781 v 4.195313 c -0.886719,0.527344 -2.347657,0.875 -4.269531,0.875 -4.644532,0 -6.644532,-2.570313 -6.644532,-5.703125 z m 0,0"
           id="path124"
           style="fill:#ffffff" />
      </g>
    </g>
  </g>
  <g
     fill="#000000"
     fill-opacity="1"
     id="g138"
     transform="translate(-116.52987,52.464844)"
     style="fill:#ffffff">
    <g
       transform="translate(278.62277,21.194627)"
       id="g136"
       style="fill:#ffffff">
      <g
         id="g134"
         style="fill:#ffffff">
        <path
           d="M 13.039062,-7.742188 H 3.191406 v -6.046874 H 1.632812 V 0 h 1.558594 v -6.355469 h 9.847656 V 0 h 1.558594 v -13.789062 h -1.558594 z m 0,0"
           id="path132"
           style="fill:#ffffff" />
      </g>
    </g>
  </g>
  <g
     fill="#000000"
     fill-opacity="1"
     id="g146"
     transform="translate(-116.52987,52.464844)"
     style="fill:#ffffff">
    <g
       transform="translate(294.84922,21.194627)"
       id="g144"
       style="fill:#ffffff">
      <g
         id="g142"
         style="fill:#ffffff">
        <path
           d="m 1.058594,-13.789062 v 1.382812 H 7.097656 V 0 H 8.65625 v -12.40625 h 6.035156 v -1.382812 z m 0,0"
           id="path140"
           style="fill:#ffffff" />
      </g>
    </g>
  </g>
  <g
     fill="#000000"
     fill-opacity="1"
     id="g154"
     transform="translate(-76.029872,52.464844)"
     style="fill:#ffffff">
    <g
       transform="translate(114.89706,41.878768)"
       id="g152"
       style="fill:#ffffff">
      <g
         id="g150"
         style="fill:#ffffff">
        <path
           d="M 15.050781,0 H 16.75 L 9.269531,-13.773438 H 8.25 L 0.769531,0 H 2.46875 l 2.265625,-4.1875 h 8.039063 z m -6.289062,-11.601562 3.265625,6.03125 H 5.484375 Z m 0,0"
           id="path148"
           style="fill:#ffffff" />
      </g>
    </g>
  </g>
  <g
     fill="#000000"
     fill-opacity="1"
     id="g162"
     transform="translate(-76.029872,52.464844)"
     style="fill:#ffffff">
    <g
       transform="translate(132.41002,41.878768)"
       id="g160"
       style="fill:#ffffff">
      <g
         id="g158"
         style="fill:#ffffff">
        <path
           d="m 2.84375,-6.886719 c 0,-3.132812 1.996094,-5.695312 6.636719,-5.695312 2.738281,0 4.667969,1.21875 4.667969,1.21875 l 0.816406,-1.113281 c 0,0 -1.863282,-1.488282 -5.484375,-1.488282 -5.464844,0 -8.230469,3.128906 -8.230469,7.078125 0,3.949219 2.765625,7.078125 8.230469,7.078125 3.621093,0 5.484375,-1.488281 5.484375,-1.488281 l -0.816406,-1.113281 c 0,0 -1.929688,1.21875 -4.667969,1.21875 -4.640625,0 -6.636719,-2.5625 -6.636719,-5.695313 z m 0,0"
           id="path156"
           style="fill:#ffffff" />
      </g>
    </g>
  </g>
  <g
     fill="#000000"
     fill-opacity="1"
     id="g170"
     transform="translate(-76.029872,52.464844)"
     style="fill:#ffffff">
    <g
       transform="translate(148.42515,41.878768)"
       id="g168"
       style="fill:#ffffff">
      <g
         id="g166"
         style="fill:#ffffff">
        <path
           d="M 15.050781,0 H 16.75 L 9.269531,-13.773438 H 8.25 L 0.769531,0 H 2.46875 l 2.265625,-4.1875 h 8.039063 z m -6.289062,-11.601562 3.265625,6.03125 H 5.484375 Z m 0,0"
           id="path164"
           style="fill:#ffffff" />
      </g>
    </g>
  </g>
  <g
     fill="#000000"
     fill-opacity="1"
     id="g178"
     transform="translate(-76.029872,52.464844)"
     style="fill:#ffffff">
    <g
       transform="translate(165.9381,41.878768)"
       id="g176"
       style="fill:#ffffff">
      <g
         id="g174"
         style="fill:#ffffff">
        <path
           d="m 15.425781,-6.886719 c 0,-3.871093 -2.335937,-6.886719 -6.664062,-6.886719 H 1.632812 V 0 h 7.128907 c 4.328125,0 6.664062,-3.015625 6.664062,-6.886719 z M 3.1875,-12.390625 h 5.574219 c 3.417969,0 5.070312,2.429687 5.070312,5.503906 0,3.074219 -1.652343,5.503907 -5.070312,5.503907 H 3.1875 Z m 0,0"
           id="path172"
           style="fill:#ffffff" />
      </g>
    </g>
  </g>
  <g
     fill="#000000"
     fill-opacity="1"
     id="g186"
     transform="translate(-76.029872,52.464844)"
     style="fill:#ffffff">
    <g
       transform="translate(182.60613,41.878768)"
       id="g184"
       style="fill:#ffffff">
      <g
         id="g182"
         style="fill:#ffffff">
        <path
           d="m 3.1875,-7.730469 v -4.660156 h 10.367188 v -1.382813 H 1.632812 V 0 H 13.648438 V -1.382812 H 3.1875 v -4.964844 h 9.816406 v -1.382813 z m 0,0"
           id="path180"
           style="fill:#ffffff" />
      </g>
    </g>
  </g>
  <g
     fill="#000000"
     fill-opacity="1"
     id="g194"
     transform="translate(-76.029872,52.464844)"
     style="fill:#ffffff">
    <g
       transform="translate(197.68993,41.878768)"
       id="g192"
       style="fill:#ffffff">
      <g
         id="g190"
         style="fill:#ffffff">
        <path
           d="m 8.980469,0 h 1.289062 l 5.789063,-11.554688 V 0 h 1.558594 v -13.773438 h -2.125 L 9.625,-2.066406 3.753906,-13.773438 H 1.632812 V 0 H 3.1875 v -11.554688 z m 0,0"
           id="path188"
           style="fill:#ffffff" />
      </g>
    </g>
  </g>
  <g
     fill="#000000"
     fill-opacity="1"
     id="g202"
     transform="translate(-76.029872,52.464844)"
     style="fill:#ffffff">
    <g
       transform="translate(216.93113,41.878768)"
       id="g200"
       style="fill:#ffffff">
      <g
         id="g198"
         style="fill:#ffffff">
        <path
           d="M 7.570312,-5.726562 V 0 H 9.125 v -5.726562 l 6.800781,-8.046876 H 14.03125 l -5.683594,6.734376 -5.6875,-6.734376 H 0.769531 Z m 0,0"
           id="path196"
           style="fill:#ffffff" />
      </g>
    </g>
  </g>
  <g
     fill="#000000"
     fill-opacity="1"
     id="g210"
     transform="translate(-76.029872,52.464844)"
     style="fill:#ffffff">
    <g
       transform="translate(237.03355,41.620002)"
       id="g208"
       style="fill:#ffffff">
      <g
         id="g206"
         style="fill:#ffffff">
        <path
           d="M 1.730469,-7.480469 H 0.886719 V 0 H 6.894531 V -0.75 H 1.730469 Z m 0,0"
           id="path204"
           style="fill:#ffffff" />
      </g>
    </g>
  </g>
  <g
     fill="#000000"
     fill-opacity="1"
     id="g218"
     transform="translate(-76.029872,52.464844)"
     style="fill:#ffffff">
    <g
       transform="translate(244.60165,41.620002)"
       id="g216"
       style="fill:#ffffff">
      <g
         id="g214"
         style="fill:#ffffff">
        <path
           d="M 1.730469,-7.480469 H 0.886719 V 0 H 6.894531 V -0.75 H 1.730469 Z m 0,0"
           id="path212"
           style="fill:#ffffff" />
      </g>
    </g>
  </g>
  <g
     fill="#000000"
     fill-opacity="1"
     id="g226"
     transform="translate(-76.029872,52.464844)"
     style="fill:#ffffff">
    <g
       transform="translate(252.16974,41.620002)"
       id="g224"
       style="fill:#ffffff">
      <g
         id="g222"
         style="fill:#ffffff">
        <path
           d="m 1.542969,-3.738281 c 0,-1.703125 1.085937,-3.09375 3.605469,-3.09375 1.484374,0 2.535156,0.660156 2.535156,0.660156 L 8.125,-6.773438 c 0,0 -1.011719,-0.808593 -2.976562,-0.808593 -2.96875,0 -4.46875,1.699219 -4.46875,3.84375 0,2.140625 1.5,3.84375 4.46875,3.84375 1.964843,0 2.976562,-0.808594 2.976562,-0.808594 L 7.683594,-1.308594 c 0,0 -1.050782,0.660156 -2.535156,0.660156 -2.519532,0 -3.605469,-1.390624 -3.605469,-3.089843 z m 0,0"
           id="path220"
           style="fill:#ffffff" />
      </g>
    </g>
  </g>
</svg>
